Coordinates
version=1
nRows=33
nColumns=33
inDegrees=yes

Units are S.I. units (second, meters, Newtons, ...)
Angles are in degrees.

endheader
time	ground_thorax_rot_x	ground_thorax_rot_y	ground_thorax_rot_z	ground_thorax_tx	ground_thorax_ty	ground_thorax_tz	clav_prot_r	clav_elev_r	scapula_abduction_r	scapula_elevation_r	scapula_upward_rot_r	scapula_winging_r	shoulder_elv_r	plane_of_elev_r	axial_rot_r	elbow_flexion_r	pro_sup_r	wrist_flex_r	wrist_dev_r	clav_prot_l	clav_elev_l	scapula_abduction_l	scapula_elevation_l	scapula_upward_rot_l	scapula_winging_l	shoulder_elv_l	plane_of_elev_l	axial_rot_l	elbow_flexion_l	pro_sup_l	wrist_flex_l	wrist_dev_l	
5.4800	-25.403222	-33.854903	43.348858	-8.337564	827.166479	-52.984432	26.998259	-45.000000	40.529924	-45.000000	-45.000000	1697.316438	1153.626707	22.400433	-158.194446	2518.068375	160.262951	13.383487	15.379333	-0.400913	31.945622	-31.112896	-45.000000	-45.000000	3684.692422	-2606.692634	131.225061	-91.507197	1790.113782	46.268740	14.082253	-18.357931	
5.4900	-24.984540	-34.182693	44.106641	-4.661846	825.366219	-52.753986	27.068424	-45.000000	40.597181	-45.000000	-45.000000	1697.438150	1153.468706	22.325592	-158.034834	2518.113115	160.880478	13.239657	15.367051	-0.452920	31.832152	-30.928756	-45.000000	-45.000000	3684.487079	-2606.839108	131.304603	-91.724745	1790.076967	46.330006	14.050396	-18.126561	
5.5000	-24.559215	-34.495503	44.871126	-0.982460	823.522715	-52.511127	27.129102	-45.000000	40.663759	-45.000000	-45.000000	1697.556293	1153.309077	22.236143	-157.830959	2518.158341	161.509534	13.092476	15.350017	-0.500714	31.711083	-30.740851	-45.000000	-45.000000	3684.278848	-2607.010199	131.399938	-92.014665	1790.043764	46.368773	14.021915	-17.902150	
5.5100	-24.141362	-34.782617	45.620882	2.694228	821.644582	-52.256044	27.181016	-45.000000	40.710205	-45.000000	-45.000000	1697.684091	1153.153999	22.134895	-157.587317	2518.207186	162.145459	12.950279	15.318942	-0.526706	31.596937	-30.553612	-45.000000	-45.000000	3684.067768	-2607.197333	131.499957	-92.371089	1790.018180	46.388807	13.989616	-17.679794	
5.5200	-23.729415	-35.046975	46.358717	6.361814	819.738915	-51.989009	27.238636	-45.000000	40.735494	-45.000000	-45.000000	1697.808993	1152.996219	22.034063	-157.300424	2518.263136	162.786756	12.815041	15.276033	-0.550944	31.487003	-30.359658	-45.000000	-45.000000	3683.861064	-2607.390824	131.594756	-92.773759	1789.999636	46.392928	13.953840	-17.461594	
5.5300	-23.332568	-35.278708	47.070208	10.013237	817.811574	-51.710678	27.289738	-45.000000	40.730503	-45.000000	-45.000000	1697.947763	1152.846134	21.924179	-156.983234	2518.325112	163.433461	12.692530	15.215118	-0.550902	31.392597	-30.169087	-45.000000	-45.000000	3683.652163	-2607.590335	131.687124	-93.215261	1789.988723	46.384619	13.910565	-17.243494	
5.5400	-22.947072	-35.479186	47.761251	13.640975	815.867384	-51.422189	27.336935	-45.000000	40.701547	-45.000000	-45.000000	1698.088851	1152.699072	21.810379	-156.639912	2518.395123	164.087079	12.581273	15.141496	-0.543963	31.307504	-29.979438	-45.000000	-45.000000	3683.442853	-2607.792555	131.776257	-93.675372	1789.980110	46.366900	13.863673	-17.028360	
5.5500	-22.560626	-35.657594	48.445338	17.236602	813.910896	-51.125277	27.391914	-45.000000	40.663729	-45.000000	-45.000000	1698.226373	1152.556906	21.691731	-156.257906	2518.472757	164.745447	12.480813	15.055061	-0.544055	31.228156	-29.779426	-45.000000	-45.000000	3683.229337	-2607.993900	131.866717	-94.154124	1789.970222	46.342580	13.812592	-16.814512	
5.5600	-22.160128	-35.822761	49.138962	20.791281	811.946752	-50.822144	27.459831	-45.000000	40.634788	-45.000000	-45.000000	1698.347753	1152.414717	21.569565	-155.830023	2518.559780	165.401048	12.384492	14.962008	-0.570073	31.143693	-29.560589	-45.000000	-45.000000	3683.011950	-2608.195083	131.962644	-94.646463	1789.956543	46.313324	13.762197	-16.605985	
5.5700	-21.751471	-35.969446	49.832920	24.295690	809.980289	-50.515422	27.531666	-45.000000	40.611519	-45.000000	-45.000000	1698.461314	1152.278936	21.438424	-155.362862	2518.651783	166.044977	12.292759	14.861026	-0.605697	31.058184	-29.331155	-45.000000	-45.000000	3682.789685	-2608.399850	132.066927	-95.154647	1789.940177	46.279872	13.712028	-16.402628	
5.5800	-21.344670	-36.091676	50.516294	27.740456	808.017622	-50.207943	27.603287	-45.000000	40.582688	-45.000000	-45.000000	1698.566857	1152.148207	21.304451	-154.862342	2518.750919	166.669931	12.206920	14.752124	-0.645155	30.974380	-29.096990	-45.000000	-45.000000	3682.568508	-2608.605697	132.171241	-95.670634	1789.921540	46.241632	13.662598	-16.206521	
5.5900	-20.943971	-36.190737	51.184420	31.116210	806.065640	-49.902612	27.676382	-45.000000	40.544620	-45.000000	-45.000000	1698.663594	1152.021656	21.171676	-154.328628	2518.855595	167.270698	12.127576	14.637538	-0.688569	30.893735	-28.858796	-45.000000	-45.000000	3682.354463	-2608.808575	132.271963	-96.188841	1789.899861	46.196916	13.614717	-16.019330	
5.6000	-20.548326	-36.266121	51.837201	34.413890	804.131543	-49.602106	27.748997	-45.000000	40.501848	-45.000000	-45.000000	1698.751988	1151.900849	21.038005	-153.760188	2518.966522	167.840611	12.052330	14.519169	-0.735278	30.813675	-28.617555	-45.000000	-45.000000	3682.144637	-2609.008388	132.371596	-96.707104	1789.874472	46.144335	13.568812	-15.841218	
5.6100	-20.160918	-36.317097	52.471347	37.624687	802.222438	-49.308721	27.821253	-45.000000	40.453454	-45.000000	-45.000000	1698.832068	1151.787105	20.903097	-153.156756	2519.081306	168.370742	11.981479	14.399213	-0.784666	30.735928	-28.375906	-45.000000	-45.000000	3681.940510	-2609.204816	132.469627	-97.222743	1789.845259	46.081298	13.524598	-15.672514	
5.6200	-19.779782	-36.344386	53.087408	40.740272	800.344739	-49.024161	27.890549	-45.000000	40.405764	-45.000000	-45.000000	1698.904445	1151.684152	20.762854	-152.511528	2519.197812	168.849719	11.913439	14.278783	-0.836314	30.656861	-28.133854	-45.000000	-45.000000	3681.735730	-2609.397579	132.571790	-97.731834	1789.810880	46.005706	13.481423	-15.511510	
5.6300	-19.408987	-36.349214	53.680065	43.752834	798.503891	-48.749606	27.958122	-45.000000	40.356174	-45.000000	-45.000000	1698.971616	1151.592749	20.618813	-151.822847	2519.317359	169.264401	11.847717	14.158697	-0.889644	30.579653	-27.892160	-45.000000	-45.000000	3681.531821	-2609.585841	132.677697	-98.232000	1789.771613	45.913885	13.437810	-15.357223	
5.6400	-19.047326	-36.330676	54.248431	46.655302	796.704275	-48.485843	28.022188	-45.000000	40.309648	-45.000000	-45.000000	1699.033487	1151.515437	20.468886	-151.092228	2519.439386	169.602348	11.782702	14.039895	-0.944793	30.501430	-27.651846	-45.000000	-45.000000	3681.323757	-2609.769984	132.789840	-98.720713	1789.726430	45.802909	13.394394	-15.208957	
5.6500	-18.700395	-36.288131	54.787485	49.441486	794.949500	-48.233609	28.085038	-45.000000	40.260708	-45.000000	-45.000000	1699.089311	1151.451487	20.316297	-150.324014	2519.564544	169.853855	11.719088	13.923388	-1.001142	30.426490	-27.414969	-45.000000	-45.000000	3681.116047	-2609.949223	132.901851	-99.195909	1789.676075	45.668847	13.351220	-15.067158	
5.6600	-18.368151	-36.223192	55.296390	52.106430	793.242774	-47.993856	28.146325	-45.000000	40.211149	-45.000000	-45.000000	1699.137470	1151.401834	20.162320	-149.520171	2519.691372	170.012941	11.656866	13.809723	-1.058970	30.352925	-27.181043	-45.000000	-45.000000	3680.907820	-2610.122462	133.013355	-99.655129	1789.619888	45.509367	13.309346	-14.931822	
5.6700	-18.056086	-36.138423	55.770890	54.646472	791.587442	-47.768016	28.208481	-45.000000	40.155717	-45.000000	-45.000000	1699.178859	1151.362852	20.011387	-148.686760	2519.824562	170.077614	11.595247	13.699563	-1.117411	30.284761	-26.950771	-45.000000	-45.000000	3680.705048	-2610.287805	133.118587	-100.098441	1789.561253	45.322241	13.268403	-14.804027	
5.6800	-17.763022	-36.036308	56.210990	57.059248	789.987328	-47.558014	28.270114	-45.000000	40.099277	-45.000000	-45.000000	1699.212935	1151.333610	19.863378	-147.830689	2519.962435	170.050097	11.533079	13.594287	-1.176104	30.218472	-26.724590	-45.000000	-45.000000	3680.506717	-2610.445437	133.219062	-100.525991	1789.501548	45.108328	13.229806	-14.684962	
5.6900	-17.491327	-35.915828	56.617505	59.343410	788.446865	-47.366171	28.331626	-45.000000	40.035727	-45.000000	-45.000000	1699.240236	1151.318538	19.716390	-146.957949	2520.101797	169.937205	11.474262	13.489754	-1.234034	30.155812	-26.502078	-45.000000	-45.000000	3680.304952	-2610.592634	133.318004	-100.940713	1789.445904	44.870796	13.188204	-14.572771	
5.7000	-17.241712	-35.782555	56.989836	61.498452	786.970711	-47.194935	28.392428	-45.000000	39.966145	-45.000000	-45.000000	1699.258286	1151.312985	19.576190	-146.068085	2520.243685	169.749167	11.416959	13.389064	-1.290765	30.095026	-26.282218	-45.000000	-45.000000	3680.107254	-2610.726852	133.410020	-101.340602	1789.395212	44.614982	13.146193	-14.470364	
5.7100	-17.014635	-35.636426	57.325452	63.524022	785.563378	-47.046632	28.450082	-45.000000	39.898516	-45.000000	-45.000000	1699.271913	1151.318814	19.436515	-145.176094	2520.381290	169.495585	11.363028	13.291664	-1.344873	30.036323	-26.071354	-45.000000	-45.000000	3679.910408	-2610.853558	133.501500	-101.725624	1789.350603	44.346908	13.101533	-14.377228	
5.7200	-16.816306	-35.483253	57.616708	65.419575	784.228501	-46.923204	28.505301	-45.000000	39.831540	-45.000000	-45.000000	1699.279088	1151.324147	19.308490	-144.285832	2520.516974	169.188833	11.308649	13.204808	-1.394265	29.980048	-25.872194	-45.000000	-45.000000	3679.730967	-2610.971062	133.579131	-102.091457	1789.310124	44.072644	13.059798	-14.297437	
5.7300	-16.645095	-35.317929	57.861483	67.183606	782.968583	-46.826033	28.553292	-45.000000	39.776816	-45.000000	-45.000000	1699.286037	1151.337359	19.182259	-143.419600	2520.638424	168.836979	11.256453	13.126730	-1.436693	29.925686	-25.694490	-45.000000	-45.000000	3679.562871	-2611.088258	133.651037	-102.435126	1789.268545	43.798444	13.020128	-14.227801	
5.7400	-16.506725	-35.145118	58.054165	68.813685	781.784562	-46.755799	28.594611	-45.000000	39.729970	-45.000000	-45.000000	1699.291359	1151.348589	19.069575	-142.577406	2520.750690	168.452292	11.203997	13.061185	-1.472237	29.872585	-25.537568	-45.000000	-45.000000	3679.415177	-2611.201620	133.709499	-102.754765	1789.225765	43.530121	12.983199	-14.169580	
5.7500	-16.397113	-34.963018	58.199278	70.306224	780.676029	-46.712374	28.624957	-45.000000	39.698986	-45.000000	-45.000000	1699.303874	1151.364454	18.957583	-141.779738	2520.846903	168.043307	11.151648	13.004987	-1.498878	29.821352	-25.403592	-45.000000	-45.000000	3679.280168	-2611.315354	133.764759	-103.053005	1789.182601	43.274019	12.945413	-14.118600	
5.7600	-16.320264	-34.777118	58.298232	71.657052	779.641307	-46.694719	28.649235	-45.000000	39.670091	-45.000000	-45.000000	1699.318224	1151.374155	18.859350	-141.019826	2520.937387	167.622538	11.099484	12.957351	-1.521267	29.769956	-25.285923	-45.000000	-45.000000	3679.158309	-2611.422745	133.816129	-103.337515	1789.144233	43.037215	12.901348	-14.074430	
5.7700	-16.264171	-34.583973	58.365700	72.861656	778.677990	-46.700801	28.663688	-45.000000	39.648607	-45.000000	-45.000000	1699.337522	1151.393808	18.762972	-140.317104	2521.012634	167.196376	11.046473	12.916313	-1.534449	29.721832	-25.180111	-45.000000	-45.000000	3679.047788	-2611.524191	133.862846	-103.614642	1789.106314	42.828526	12.854671	-14.033978	
5.7800	-16.231566	-34.383808	58.405088	73.916088	777.783049	-46.727528	28.675005	-45.000000	39.625178	-45.000000	-45.000000	1699.346803	1151.414362	18.682747	-139.668029	2521.078300	166.770409	10.998798	12.880047	-1.548191	29.675378	-25.091161	-45.000000	-45.000000	3678.948781	-2611.620556	133.909929	-103.885493	1789.073742	42.654476	12.799786	-13.999465	
5.7900	-16.215936	-34.178765	58.424487	74.817208	776.953165	-46.770792	28.679468	-45.000000	39.604173	-45.000000	-45.000000	1699.354002	1151.441970	18.605715	-139.084800	2521.131753	166.347894	10.950290	12.850201	-1.556717	29.636836	-25.010703	-45.000000	-45.000000	3678.866729	-2611.707251	133.950117	-104.154994	1789.046668	42.521631	12.741262	-13.969940	
5.8000	-16.219320	-33.968763	58.421145	75.562996	776.184829	-46.825643	28.684263	-45.000000	39.584753	-45.000000	-45.000000	1699.343447	1151.464569	18.548371	-138.563870	2521.181013	165.930846	10.911402	12.823150	-1.574138	29.601908	-24.956607	-45.000000	-45.000000	3678.801068	-2611.799823	134.001383	-104.417929	1789.021845	42.433740	12.676359	-13.949128	
